<?xml version="1.0" encoding="UTF-8"?>
<svg xmlns="http://www.w3.org/2000/svg" width="1360" height="1720" viewBox="0 0 680 860">
<title>Terraform AWS 3-Tier Platform — Architecture Diagram</title>
<defs>
  <marker id="arrow" viewBox="0 0 10 10" refX="8" refY="5" markerWidth="6" markerHeight="6" orient="auto-start-reverse">
    <path d="M2 1L8 5L2 9" fill="none" stroke="context-stroke" stroke-width="1.5" stroke-linecap="round" stroke-linejoin="round"/>
  </marker>
  <style>
    text { font-family: 'Segoe UI', Arial, sans-serif; fill: #1a1a2e; }
    .th { font-size: 14px; font-weight: 600; }
    .ts { font-size: 12px; font-weight: 400; }
  </style>
</defs>

<!-- White background for PNG export -->
<rect width="680" height="860" fill="#F8FAFD"/>

<!-- Decorative header bar -->
<rect x="0" y="0" width="680" height="48" fill="#0C2D57" rx="0"/>
<text class="th" x="340" y="20" text-anchor="middle" fill="#FFFFFF" font-size="15" dominant-baseline="central" dy="4">Terraform AWS 3-Tier Platform</text>
<text class="ts" x="340" y="38" text-anchor="middle" fill="#85B7EB" font-size="11" dominant-baseline="central">Infrastructure provisioned by Terraform · VPC 10.0.0.0/16</text>

<!-- ── AWS CLOUD BOUNDARY ── -->
<rect x="118" y="62" width="548" height="756" rx="16" fill="#EAF3FF" fill-opacity="0.5" stroke="#185FA5" stroke-width="1.2" stroke-dasharray="7 4"/>
<rect x="118" y="62" width="94" height="22" rx="4" fill="#185FA5"/>
<text class="ts" x="128" y="77" fill="#FFFFFF" dominant-baseline="central" font-size="11">AWS Cloud</text>

<!-- ── VPC BOUNDARY ── -->
<rect x="130" y="96" width="524" height="710" rx="12" fill="#E6F1FB" fill-opacity="0.3" stroke="#378ADD" stroke-width="0.8" stroke-dasharray="5 3"/>
<rect x="130" y="96" width="140" height="22" rx="4" fill="#378ADD" fill-opacity="0.85"/>
<text class="ts" x="140" y="111" fill="#FFFFFF" dominant-baseline="central" font-size="11">VPC · 10.0.0.0/16</text>

<!-- ── INTERNET GATEWAY ── -->
<rect x="260" y="132" width="160" height="48" rx="8" fill="#0C447C" stroke="#185FA5" stroke-width="0.5"/>
<text class="th" x="340" y="152" text-anchor="middle" dominant-baseline="central" fill="#FFFFFF">Internet Gateway</text>
<text class="ts" x="340" y="168" text-anchor="middle" dominant-baseline="central" fill="#85B7EB">igw · attached to VPC</text>

<!-- ── PUBLIC SUBNET ── -->
<rect x="142" y="200" width="500" height="260" rx="10" fill="#DBEEFF" fill-opacity="0.5" stroke="#185FA5" stroke-width="0.8" stroke-dasharray="4 3"/>
<rect x="142" y="200" width="178" height="20" rx="4" fill="#185FA5" fill-opacity="0.85"/>
<text class="ts" x="152" y="214" fill="#FFFFFF" dominant-baseline="central" font-size="11">Public subnet · 10.0.1.0/24</text>

<!-- Frontend EC2 card -->
<rect x="158" y="228" width="202" height="212" rx="10" fill="#FFFFFF" stroke="#378ADD" stroke-width="1"/>
<rect x="158" y="228" width="202" height="36" rx="10" fill="#185FA5"/>
<rect x="158" y="252" width="202" height="12" fill="#185FA5"/>
<text class="th" x="259" y="251" text-anchor="middle" dominant-baseline="central" fill="#FFFFFF">EC2 · Frontend</text>
<text class="ts" x="259" y="276" text-anchor="middle" dominant-baseline="central" fill="#444441">Amazon Linux 2 · t2.micro</text>

<!-- Docker badge: Nginx -->
<rect x="174" y="292" width="170" height="56" rx="7" fill="#E6F1FB" stroke="#185FA5" stroke-width="0.8"/>
<rect x="174" y="292" width="170" height="22" rx="7" fill="#185FA5"/>
<rect x="174" y="306" width="170" height="8" fill="#185FA5"/>
<text class="ts" x="259" y="305" text-anchor="middle" dominant-baseline="central" fill="#FFFFFF" font-size="11">Docker container</text>
<text class="th" x="259" y="325" text-anchor="middle" dominant-baseline="central" fill="#0C447C" font-size="12">Nginx · port 8080</text>

<!-- SG badge frontend -->
<rect x="174" y="360" width="170" height="36" rx="6" fill="#FFF3E0" stroke="#E65100" stroke-width="0.8" stroke-dasharray="3 2"/>
<text class="ts" x="259" y="374" text-anchor="middle" dominant-baseline="central" fill="#BF360C" font-size="11">Security Group</text>
<text class="ts" x="259" y="389" text-anchor="middle" dominant-baseline="central" fill="#E65100" font-size="10">allow :8080 (0.0.0.0/0), :22</text>

<!-- Elastic IP badge -->
<rect x="174" y="408" width="170" height="22" rx="5" fill="#E8F5E9" stroke="#388E3C" stroke-width="0.8"/>
<text class="ts" x="259" y="423" text-anchor="middle" dominant-baseline="central" fill="#1B5E20" font-size="11">Elastic / Public IP assigned</text>

<!-- Route table public -->
<rect x="380" y="228" width="240" height="88" rx="10" fill="#FFFFFF" stroke="#B5D4F4" stroke-width="1"/>
<rect x="380" y="228" width="240" height="30" rx="10" fill="#378ADD" fill-opacity="0.15"/>
<rect x="380" y="250" width="240" height="8" fill="#378ADD" fill-opacity="0.15"/>
<text class="th" x="500" y="248" text-anchor="middle" dominant-baseline="central" fill="#0C447C">Route table · public</text>
<text class="ts" x="500" y="272" text-anchor="middle" dominant-baseline="central" fill="#444441">0.0.0.0/0  →  IGW</text>
<text class="ts" x="500" y="290" text-anchor="middle" dominant-baseline="central" fill="#444441">10.0.0.0/16  →  local</text>

<!-- Public route note -->
<rect x="380" y="328" width="240" height="44" rx="8" fill="#E8F5E9" stroke="#388E3C" stroke-width="0.8"/>
<text class="th" x="500" y="346" text-anchor="middle" dominant-baseline="central" fill="#1B5E20" font-size="12">Internet-accessible tier</text>
<text class="ts" x="500" y="362" text-anchor="middle" dominant-baseline="central" fill="#2E7D32" font-size="11">receives inbound HTTP/HTTPS</text>

<!-- ── PRIVATE SUBNET ── -->
<rect x="142" y="482" width="500" height="260" rx="10" fill="#FFF8E1" fill-opacity="0.5" stroke="#F57F17" stroke-width="0.8" stroke-dasharray="4 3"/>
<rect x="142" y="482" width="184" height="20" rx="4" fill="#F57F17" fill-opacity="0.85"/>
<text class="ts" x="152" y="496" fill="#FFFFFF" dominant-baseline="central" font-size="11">Private subnet · 10.0.11.0/24</text>

<!-- Backend EC2 card -->
<rect x="158" y="510" width="202" height="212" rx="10" fill="#FFFFFF" stroke="#EF9F27" stroke-width="1"/>
<rect x="158" y="510" width="202" height="36" rx="10" fill="#854F0B"/>
<rect x="158" y="534" width="202" height="12" fill="#854F0B"/>
<text class="th" x="259" y="533" text-anchor="middle" dominant-baseline="central" fill="#FFFFFF">EC2 · Backend</text>
<text class="ts" x="259" y="558" text-anchor="middle" dominant-baseline="central" fill="#444441">Amazon Linux 2 · t2.micro</text>

<!-- Docker badge: API -->
<rect x="174" y="574" width="170" height="56" rx="7" fill="#FAEEDA" stroke="#EF9F27" stroke-width="0.8"/>
<rect x="174" y="574" width="170" height="22" rx="7" fill="#854F0B"/>
<rect x="174" y="588" width="170" height="8" fill="#854F0B"/>
<text class="ts" x="259" y="587" text-anchor="middle" dominant-baseline="central" fill="#FFFFFF" font-size="11">Docker container</text>
<text class="th" x="259" y="607" text-anchor="middle" dominant-baseline="central" fill="#633806" font-size="12">Backend API · port 3000</text>

<!-- SG badge backend -->
<rect x="174" y="642" width="170" height="36" rx="6" fill="#FFF3E0" stroke="#E65100" stroke-width="0.8" stroke-dasharray="3 2"/>
<text class="ts" x="259" y="656" text-anchor="middle" dominant-baseline="central" fill="#BF360C" font-size="11">Security Group</text>
<text class="ts" x="259" y="671" text-anchor="middle" dominant-baseline="central" fill="#E65100" font-size="10">allow :3000 from SG-Frontend</text>

<!-- No public IP badge -->
<rect x="174" y="690" width="170" height="22" rx="5" fill="#FCE4EC" stroke="#C62828" stroke-width="0.8"/>
<text class="ts" x="259" y="705" text-anchor="middle" dominant-baseline="central" fill="#B71C1C" font-size="11">No public IP · isolated</text>

<!-- Route table private -->
<rect x="380" y="510" width="240" height="88" rx="10" fill="#FFFFFF" stroke="#FFE082" stroke-width="1"/>
<rect x="380" y="510" width="240" height="30" rx="10" fill="#F57F17" fill-opacity="0.12"/>
<rect x="380" y="532" width="240" height="8" fill="#F57F17" fill-opacity="0.12"/>
<text class="th" x="500" y="530" text-anchor="middle" dominant-baseline="central" fill="#E65100">Route table · private</text>
<text class="ts" x="500" y="554" text-anchor="middle" dominant-baseline="central" fill="#444441">10.0.0.0/16  →  local</text>
<text class="ts" x="500" y="572" text-anchor="middle" dominant-baseline="central" fill="#C62828">no IGW route</text>

<!-- Private note -->
<rect x="380" y="610" width="240" height="44" rx="8" fill="#FCE4EC" stroke="#C62828" stroke-width="0.8"/>
<text class="th" x="500" y="628" text-anchor="middle" dominant-baseline="central" fill="#B71C1C" font-size="12">Internal-only tier</text>
<text class="ts" x="500" y="644" text-anchor="middle" dominant-baseline="central" fill="#C62828" font-size="11">no direct internet access</text>

<!-- ── TERRAFORM BLOCK (outside AWS cloud) ── -->
<rect x="20" y="300" width="84" height="184" rx="10" fill="#F3E8FF" stroke="#7C3AED" stroke-width="1" stroke-dasharray="3 2"/>
<rect x="20" y="300" width="84" height="24" rx="10" fill="#7C3AED"/>
<rect x="20" y="316" width="84" height="8" fill="#7C3AED"/>
<text class="th" x="62" y="315" text-anchor="middle" dominant-baseline="central" fill="#FFFFFF" font-size="12">Terraform</text>

<rect x="29" y="334" width="66" height="36" rx="6" fill="#EDE9FE" stroke="#7C3AED" stroke-width="0.8"/>
<text class="th" x="62" y="348" text-anchor="middle" dominant-baseline="central" fill="#5B21B6" font-size="11">vpc</text>
<text class="ts" x="62" y="362" text-anchor="middle" dominant-baseline="central" fill="#7C3AED" font-size="10">module</text>

<rect x="29" y="378" width="66" height="36" rx="6" fill="#EDE9FE" stroke="#7C3AED" stroke-width="0.8"/>
<text class="th" x="62" y="392" text-anchor="middle" dominant-baseline="central" fill="#5B21B6" font-size="11">sec_groups</text>
<text class="ts" x="62" y="406" text-anchor="middle" dominant-baseline="central" fill="#7C3AED" font-size="10">module</text>

<rect x="29" y="422" width="66" height="36" rx="6" fill="#EDE9FE" stroke="#7C3AED" stroke-width="0.8"/>
<text class="th" x="62" y="436" text-anchor="middle" dominant-baseline="central" fill="#5B21B6" font-size="11">ec2</text>
<text class="ts" x="62" y="450" text-anchor="middle" dominant-baseline="central" fill="#7C3AED" font-size="10">module</text>

<!-- Terraform → VPC arrow -->
<path d="M104 392 L130 392" fill="none" stroke="#7C3AED" stroke-width="1.2" stroke-dasharray="4 2" marker-end="url(#arrow)"/>
<text class="ts" x="117" y="385" text-anchor="middle" fill="#7C3AED" font-size="10">provisions</text>

<!-- ── TRAFFIC FLOW ARROWS ── -->

<!-- Internet → cloud top -->
<text class="th" x="340" y="34" text-anchor="middle" fill="#0C2D57" dominant-baseline="central" font-size="13">Internet · users</text>
<path d="M340 48 L340 62" fill="none" stroke="#185FA5" stroke-width="2" marker-end="url(#arrow)"/>
<text class="ts" x="356" y="57" fill="#185FA5" font-size="11">port 8080</text>

<!-- Cloud → IGW -->
<path d="M340 84 L340 132" fill="none" stroke="#185FA5" stroke-width="1.5" marker-end="url(#arrow)"/>

<!-- IGW ↔ frontend (down) -->
<path d="M340 180 L340 228" fill="none" stroke="#185FA5" stroke-width="1.5" marker-end="url(#arrow)"/>
<!-- response back up (dashed) -->
<path d="M334 228 L334 180" fill="none" stroke="#378ADD" stroke-width="1" stroke-dasharray="4 2" marker-end="url(#arrow)"/>
<text class="ts" x="356" y="208" fill="#185FA5" font-size="11">via route table</text>

<!-- Frontend → Backend (internal) -->
<path d="M259 440 L259 510" fill="none" stroke="#388E3C" stroke-width="1.8" stroke-dasharray="6 3" marker-end="url(#arrow)"/>
<text class="ts" x="278" y="479" fill="#2E7D32" font-size="11">port 3000</text>
<text class="ts" x="278" y="493" fill="#2E7D32" font-size="11">internal only</text>

<!-- ── LEGEND ── -->
<rect x="130" y="770" width="524" height="68" rx="8" fill="#FFFFFF" stroke="#B5D4F4" stroke-width="0.8"/>
<rect x="130" y="770" width="524" height="24" rx="8" fill="#0C2D57"/>
<rect x="130" y="784" width="524" height="10" fill="#0C2D57"/>
<text class="th" x="392" y="784" text-anchor="middle" dominant-baseline="central" fill="#FFFFFF" font-size="12">Legend</text>

<line x1="148" y1="810" x2="186" y2="810" stroke="#185FA5" stroke-width="2" marker-end="url(#arrow)"/>
<text class="ts" x="192" y="814" fill="#185FA5" font-size="11">internet traffic</text>

<line x1="282" y1="810" x2="320" y2="810" stroke="#388E3C" stroke-width="2" stroke-dasharray="5 3" marker-end="url(#arrow)"/>
<text class="ts" x="326" y="814" fill="#2E7D32" font-size="11">internal traffic</text>

<line x1="420" y1="810" x2="458" y2="810" stroke="#7C3AED" stroke-width="1.2" stroke-dasharray="4 2" marker-end="url(#arrow)"/>
<text class="ts" x="464" y="814" fill="#5B21B6" font-size="11">terraform provisions</text>

<rect x="148" y="824" width="44" height="10" rx="2" fill="none" stroke="#185FA5" stroke-width="0.8" stroke-dasharray="3 2"/>
<text class="ts" x="198" y="833" fill="#444441" font-size="11">VPC / subnet boundary</text>

<rect x="310" y="824" width="30" height="10" rx="2" fill="none" stroke="#E65100" stroke-width="0.8" stroke-dasharray="2 2"/>
<text class="ts" x="346" y="833" fill="#444441" font-size="11">security group</text>
</svg>
